<svg width="60" height="60" viewBox="0 0 60 60" fill="none" xmlns="http://www.w3.org/2000/svg">
<path d="M30 3.75C36.9619 3.75 43.6387 6.51562 48.5616 11.4384C53.4844 16.3613 56.25 23.0381 56.25 30C56.25 36.9619 53.4844 43.6387 48.5616 48.5616C43.6387 53.4844 36.9619 56.25 30 56.25C23.0381 56.25 16.3613 53.4844 11.4384 48.5616C6.51562 43.6387 3.75 36.9619 3.75 30C3.75 23.0381 6.51562 16.3613 11.4384 11.4384C16.3613 6.51562 23.0381 3.75 30 3.75ZM30 26.8162L23.9025 20.7188C23.4803 20.2966 22.9077 20.0594 22.3106 20.0594C21.7136 20.0594 21.1409 20.2966 20.7188 20.7188C20.2966 21.1409 20.0594 21.7136 20.0594 22.3106C20.0594 22.9077 20.2966 23.4803 20.7188 23.9025L26.8162 30L20.7188 36.0975C20.5097 36.3065 20.3439 36.5547 20.2307 36.8279C20.1176 37.101 20.0594 37.3937 20.0594 37.6894C20.0594 37.985 20.1176 38.2778 20.2307 38.5509C20.3439 38.824 20.5097 39.0722 20.7188 39.2812C20.9278 39.4903 21.176 39.6561 21.4491 39.7693C21.7222 39.8824 22.015 39.9406 22.3106 39.9406C22.6063 39.9406 22.899 39.8824 23.1721 39.7693C23.4453 39.6561 23.6935 39.4903 23.9025 39.2812L30 33.1838L36.0975 39.2812C36.3065 39.4903 36.5547 39.6561 36.8279 39.7693C37.101 39.8824 37.3937 39.9406 37.6894 39.9406C37.985 39.9406 38.2778 39.8824 38.5509 39.7693C38.824 39.6561 39.0722 39.4903 39.2812 39.2812C39.4903 39.0722 39.6561 38.824 39.7693 38.5509C39.8824 38.2778 39.9406 37.985 39.9406 37.6894C39.9406 37.3937 39.8824 37.101 39.7693 36.8279C39.6561 36.5547 39.4903 36.3065 39.2812 36.0975L33.1838 30L39.2812 23.9025C39.4903 23.6935 39.6561 23.4453 39.7693 23.1721C39.8824 22.899 39.9406 22.6063 39.9406 22.3106C39.9406 22.015 39.8824 21.7222 39.7693 21.4491C39.6561 21.176 39.4903 20.9278 39.2812 20.7188C39.0722 20.5097 38.824 20.3439 38.5509 20.2307C38.2778 20.1176 37.985 20.0594 37.6894 20.0594C37.3937 20.0594 37.101 20.1176 36.8279 20.2307C36.5547 20.3439 36.3065 20.5097 36.0975 20.7188L30 26.8162Z" fill="white"/>
</svg>
