<svg width="24" height="25" viewBox="0 0 24 25" fill="none" xmlns="http://www.w3.org/2000/svg">
<g clip-path="url(#clip0_61_936)">
<path d="M23.6667 9.11117L23.7222 20.9445C23.7222 21.6112 23.4907 22.176 23.0278 22.6389C22.5648 23.1019 22 23.3334 21.3333 23.3334H2.38889C1.72222 23.3334 1.15741 23.1019 0.694444 22.6389C0.231481 22.176 0 21.6112 0 20.9445V9.11117C0 8.22228 0.37037 7.53709 1.11111 7.05561L11.8333 0.777832L22.5556 7.05561C23.2963 7.53709 23.6667 8.22228 23.6667 9.11117ZM11.8333 15.0001L21.6667 8.88894L11.8333 3.16672L2.05556 8.88894L11.8333 15.0001Z" fill="white"/>
</g>
<defs>
<clipPath id="clip0_61_936">
<rect width="24" height="24" fill="white" transform="translate(0 0.5)"/>
</clipPath>
</defs>
</svg>
