<svg width="231" height="39" viewBox="0 0 231 39" fill="none" xmlns="http://www.w3.org/2000/svg">
<path fill-rule="evenodd" clip-rule="evenodd" d="M44.8234 0V37.8126V0Z" fill="white"/>
<path d="M44.8234 0V37.8126" stroke="white" stroke-width="1.7718"/>
<path fill-rule="evenodd" clip-rule="evenodd" d="M13.6349 35.8007C16.049 35.8007 14.3662 35.7088 15.4415 34.4844C16.0613 33.7787 16.7469 33.8203 17.5195 33.8203C17.5195 36.1789 17.2113 35.8007 18.6622 35.8007C19.0645 35.8007 18.8907 34.9383 18.8907 33.8203C19.8906 33.8203 20.8445 33.8735 21.2997 35.0676C21.6104 35.8828 20.9145 35.8007 22.7754 35.8007C22.7754 35.2722 22.655 34.7304 22.4566 34.3677C22.3362 34.1473 22.2654 33.993 22.1093 33.8009C21.2232 32.7113 20.3726 32.4493 18.8907 32.4493V30.6212C19.8074 30.3762 21.4163 28.3912 24.9693 30.7125C25.7063 31.194 26.6851 31.5353 27.879 31.5353C28.7892 32.8947 28.5644 34.0322 28.5644 35.877C28.5644 36.1728 28.464 36.4443 28.3507 36.6535C27.9225 37.4425 27.1902 37.7052 26.2031 37.7052H10.2071C7.35151 37.7052 7.84583 35.4596 7.84583 33.5157C7.84583 31.5004 9.7757 30.3889 10.2832 29.6309C12.7935 29.8398 13.2023 32.3125 17.5195 31.3066V32.4493C16.2298 32.4493 15.6742 32.5906 14.7754 33.2853C14.5796 33.4368 14.4997 33.5615 14.3366 33.7603C14.1479 33.9899 14.1346 34.0469 13.9819 34.3198C13.7564 34.7231 13.6349 35.2244 13.6349 35.8007V35.8007ZM16.3009 23.1563V14.3203H17.5195V29.7071C17.5195 29.9699 17.2719 29.9853 17.0208 30.0462C15.714 30.3638 14.403 30.1612 13.2993 29.4333C12.2612 28.7488 12.3095 28.9156 11.502 28.4884C11.727 28.1522 12.4073 27.545 12.7398 27.2125L15.2535 24.6988C15.6493 24.303 16.3009 23.8831 16.3009 23.1563V23.1563ZM18.8907 29.0977V14.3203H20.1095V23.1563C20.1095 23.8648 20.8033 24.3453 21.4615 25.0035C22.107 25.649 26.0519 29.5197 26.2794 29.8593C25.4888 29.6751 23.4119 27.42 20.0221 28.5533C19.4816 28.734 19.3245 28.8683 18.8907 29.0977ZM20.414 11.045L24.4513 8.37894C24.3277 8.14567 24.2552 8.04065 24.0919 7.82423C23.9353 7.61705 23.8238 7.43687 23.6894 7.23638C22.1682 8.25513 20.6404 9.26464 19.1192 10.2833C19.1814 9.53507 20.0711 8.25283 20.7498 7.72439C22.5421 6.32892 23.7093 6.55082 25.8985 6.55082C25.8985 7.47829 25.2865 8.60892 24.6684 9.28185L24.5584 9.4003C23.3729 10.5789 22.194 11.045 20.414 11.045V11.045ZM10.5117 6.55082C12.6997 6.55082 13.8706 6.33081 15.6604 7.72439L16.6386 8.80291C16.8259 9.07467 17.2612 9.92468 17.291 10.2833C16.9294 10.0411 12.9452 7.31671 12.6445 7.23638C12.5667 7.52808 12.1291 8.0575 11.959 8.37894L15.9961 11.045C15.2242 11.045 14.4444 10.9407 13.8725 10.7312C13.0371 10.4249 12.4023 9.97028 11.8142 9.36157C11.7761 9.32211 11.7167 9.25309 11.6697 9.20158C11.1039 8.58017 10.5117 7.42198 10.5117 6.55082V6.55082ZM15.2345 12.3399H17.5195V12.9494C14.5836 12.9494 14.9297 12.6463 14.9297 15.7676V21.4043C14.9297 23.6122 15.3485 22.6995 12.9303 25.1177C11.6548 26.3931 10.4352 27.6129 9.15969 28.8882C6.58907 31.4588 6.47469 31.744 6.47469 35.4199C6.47469 36.4975 6.74876 37.3191 7.29173 37.8782C7.80631 38.4078 8.52472 39 9.52158 39H26.8887C28.4877 39 29.9356 37.5302 29.9356 35.4199C29.9356 31.79 29.8215 31.4594 27.2887 28.9263C26.0131 27.6508 24.7936 26.4313 23.518 25.1559C22.898 24.5359 22.2283 23.926 21.6455 23.296C21.3626 22.9901 21.4805 22.3112 21.4805 21.5566L21.4847 13.9355C21.4805 12.6841 20.5837 12.9494 18.8908 12.9494V12.3399H21.1759C23.8988 12.3399 26.2744 10.2032 27.0513 7.70346C27.2184 7.16547 27.7403 5.17984 26.6603 5.17984C23.9141 5.17984 21.3155 4.95905 19.253 7.29409C18.9837 7.59905 18.3869 8.36488 18.2813 8.75997H18.129C17.9155 7.9605 16.6931 6.74613 15.9163 6.24992C13.9079 4.96652 12.1349 5.17984 9.75003 5.17984C8.67005 5.17984 9.19192 7.16547 9.35909 7.70346C9.63948 8.60563 10.0464 9.33554 10.576 9.99064C11.4592 11.0833 13.2863 12.3399 15.2345 12.3399H15.2345Z" fill="white"/>
<path fill-rule="evenodd" clip-rule="evenodd" d="M0 17.748C0 20.0478 0.193073 21.8392 0.943225 23.9651C1.19352 24.6739 2.34903 27.6519 2.97088 28.1075L4.03724 27.498C3.93107 27.043 2.24845 24.7538 1.61998 21.3841C1.41085 20.2631 1.23548 18.6326 1.36008 17.5085C1.5506 15.7877 1.33916 15.8485 1.91996 13.7266C2.35426 12.14 3.2413 10.1506 4.15746 8.80405C4.28619 8.61487 4.31745 8.59974 4.44856 8.40959C4.57851 8.22138 4.62795 8.14584 4.76538 7.96468C5.72466 6.70014 7.09434 5.35655 8.40954 4.44866C13.301 1.07206 19.2919 0.243341 24.9866 2.74014C27.6875 3.92441 30.1188 5.84182 31.8405 8.22594C33.6013 10.6643 35.039 14.2734 35.039 17.3672C35.039 19.8821 34.9715 21.7051 34.0274 24.049C33.654 24.9761 32.5638 27.4804 31.916 27.9551V26.6602H30.5449V30.0117C30.5449 30.2239 30.8659 30.5449 31.0781 30.5449H34.5058V29.25H32.754L34.1016 27.0938C36.3713 23.0348 37.0166 18.3319 35.8616 13.7264C35.7142 13.1383 35.5492 12.5698 35.3535 12.0255C34.4419 9.48963 32.9781 7.19653 31.0972 5.313L29.9892 4.28817C29.0181 3.47022 27.1035 2.20422 25.9305 1.71993C24.6314 1.18328 24.361 0.965709 22.7454 0.56339C21.483 0.248881 20.2412 0.0628019 19.0224 0.000106812H17.174C13.5449 0.188679 10.146 1.49486 7.06193 3.78661C2.9049 6.8757 0 12.4447 0 17.748V17.748Z" fill="white"/>
<path fill-rule="evenodd" clip-rule="evenodd" d="M3.88485 17.9005C3.88485 22.9382 5.95659 25.3093 6.09383 25.8984C5.84026 25.8394 4.91029 25.6076 4.72263 25.5176C4.56452 25.8472 4.50663 26.469 4.34184 26.8127C8.23009 27.7185 8.2023 28.4953 8.67729 26.1208C8.80511 25.4817 8.92065 24.8397 9.06446 24.2227C8.88118 24.1348 8.6169 24.1114 8.38479 24.0633C8.19391 24.0237 8.25484 24.0297 8.06031 23.991C7.8136 23.9417 7.82759 23.929 7.75498 23.9982C7.68213 24.0676 7.46954 25.2291 7.46498 25.4415L7.03894 24.8011C6.07735 23.2145 5.25587 20.7141 5.25587 18.8908C5.25587 16.6376 5.38582 15.1102 6.27207 13.1276C7.33886 10.741 7.40764 11.1619 8.45515 9.59771C8.05113 9.38403 7.79348 9.03095 7.38866 8.75998C7.27696 8.97117 6.20116 10.2982 5.50002 11.5937C4.62089 13.2183 3.88485 15.8002 3.88485 17.9005V17.9005Z" fill="white"/>
<path fill-rule="evenodd" clip-rule="evenodd" d="M27.9551 9.59771C28.9009 11.0101 29.1524 10.8853 30.09 13.0233C30.3536 13.6246 30.6378 14.3299 30.7934 15.0623C31.2736 17.3224 31.3188 19.0002 30.8038 21.2824C30.6229 22.0835 30.3769 22.7325 30.09 23.387C29.2013 25.4137 28.9074 25.3903 27.9551 26.8127C28.4561 27.1481 28.7335 27.5736 29.0215 27.6504C29.0848 27.4138 29.1768 27.3794 29.3257 27.1929C30.3507 25.9082 30.7601 25.1887 31.457 23.6113C31.7932 22.8508 32.0019 22.0271 32.206 21.1612C32.8772 18.3154 32.4596 15.323 31.4374 12.7424C31.1446 12.0031 30.767 11.2604 30.3471 10.6335C30.1196 10.2942 29.9294 9.98044 29.7076 9.67322C29.4794 9.35719 29.2116 9.11931 29.0215 8.75998C28.5471 9.07753 28.4377 9.27457 27.9551 9.59771V9.59771Z" fill="white"/>
<path fill-rule="evenodd" clip-rule="evenodd" d="M3.6562 29.174C3.76317 29.3335 3.98494 29.5788 4.13691 29.7597C4.2868 29.9381 4.49034 30.2118 4.64656 30.3165C4.99998 30.0798 5.32489 29.6874 5.63672 29.4785C5.37506 29.0879 4.99439 28.7417 4.72263 28.336C4.47118 28.5043 3.80282 28.9549 3.6562 29.174V29.174Z" fill="white"/>
<path fill-rule="evenodd" clip-rule="evenodd" d="M109.627 15.824L108.07 14.054C109.365 12.6119 109.414 10.5471 109.414 10.0881C109.414 7.0072 107.448 4.02495 103.253 4.02495C99.7126 4.02495 97.0907 6.28642 97.0907 10.0881C97.0907 13.8741 99.7126 16.1519 103.253 16.1519C104.662 16.1519 105.612 15.824 106.415 15.398L107.562 16.807L109.627 15.824ZM104.825 10.8095L102.859 11.6944L104.236 13.2183C104.006 13.3164 103.695 13.3988 103.253 13.3988C101.761 13.3988 100.401 12.3171 100.401 10.0881C100.401 7.51557 102.154 6.77801 103.253 6.77801C104.367 6.77801 106.104 7.49928 106.104 10.0881C106.104 10.875 105.973 11.4159 105.71 11.8744L104.825 10.8095ZM116.74 8.87584C116.035 7.97457 115.248 7.61365 114.15 7.61365C111.528 7.61365 110.463 9.85889 110.463 11.8581C110.463 14.5293 112.135 16.1188 114.15 16.1188C115.314 16.1188 116.183 15.611 116.74 14.8897V15.824H119.493V7.90902H116.74V8.87584ZM115.133 13.7592C113.954 13.7592 113.429 12.8087 113.429 11.8581C113.429 10.9406 113.937 9.97375 115.133 9.97375C116.15 9.97375 116.854 10.7108 116.854 11.8581C116.854 13.0216 116.15 13.7592 115.133 13.7592ZM120.869 7.90902V9.97375H124.426L120.41 15.824H128.44V13.7592H124.72L128.784 7.90902H120.869ZM133.75 4.35285V15.824H139.617C142.271 15.824 143.369 14.2345 143.369 12.6282C143.369 10.5309 141.698 9.87513 140.944 9.69525V9.66217C141.879 9.33428 142.73 8.48239 142.73 7.26953C142.73 6.38451 142.419 4.35285 139.305 4.35285H133.75ZM136.962 8.87584V6.64685H138.306C139.404 6.64685 139.781 7.18769 139.781 7.79409C139.781 8.22006 139.568 8.87584 138.306 8.87584H136.962ZM136.962 13.53V11.1698H138.437C138.961 11.1698 140.158 11.1698 140.158 12.3171C140.158 13.5131 138.929 13.53 138.437 13.53H136.962ZM144.779 7.90902V15.824H147.647V7.90902H144.779ZM144.697 5.61446C144.697 6.45011 145.369 7.12213 146.205 7.12213C147.041 7.12213 147.712 6.45011 147.712 5.61446C147.712 4.77875 147.041 4.10674 146.205 4.10674C145.369 4.10674 144.697 4.77875 144.697 5.61446ZM153.808 16.1188C157.086 16.1188 158.544 14.1196 158.544 11.8581C158.544 9.62964 157.086 7.61365 153.808 7.61365C150.531 7.61365 149.072 9.62964 149.072 11.8581C149.072 14.1196 150.531 16.1188 153.808 16.1188ZM153.808 14.054C152.661 14.054 152.038 13.169 152.038 11.8581C152.038 10.5634 152.661 9.6784 153.808 9.6784C154.955 9.6784 155.578 10.5634 155.578 11.8581C155.578 13.169 154.955 14.054 153.808 14.054ZM163.083 15.824H166.164L167.017 9.17065L168.95 15.824H171.015L172.949 9.17065L173.801 15.824H176.882L175.21 4.35285H171.998L169.983 11.3503L167.967 4.35285H164.755L163.083 15.824ZM183.503 13.4151C183.355 14.0541 182.782 14.3982 181.995 14.3982C180.848 14.3982 180.258 13.4969 180.29 12.497H186.321C186.387 10.7276 185.731 7.61365 181.962 7.61365C179.258 7.61365 177.603 9.35113 177.603 11.8581C177.603 14.6279 179.537 16.1188 181.995 16.1188C182.683 16.1188 185.338 16.1188 186.256 13.4151H183.503ZM180.356 10.9406C180.405 10.0881 180.996 9.33429 181.962 9.33429C182.995 9.33429 183.519 10.1212 183.568 10.9406H180.356ZM196.35 15.824V3.77892H193.482V8.72843C192.762 7.90902 192.056 7.61365 191.008 7.61365C188.37 7.61365 187.304 9.84266 187.304 11.8581C187.304 14.5293 188.959 16.1188 191.008 16.1188C192.171 16.1188 193.04 15.611 193.597 14.8897V15.824H196.35ZM191.991 13.7592C190.779 13.7592 190.27 12.8087 190.27 11.8581C190.27 10.9243 190.779 9.97375 191.991 9.97375C193.007 9.97375 193.712 10.7108 193.712 11.8581C193.712 13.0216 193.007 13.7592 191.991 13.7592ZM198.218 7.90902V15.824H201.086V7.90902H198.218ZM198.136 5.61446C198.136 6.45011 198.808 7.12213 199.644 7.12213C200.48 7.12213 201.152 6.45011 201.152 5.61446C201.152 4.77875 200.48 4.10674 199.644 4.10674C198.808 4.10674 198.136 4.77875 198.136 5.61446ZM209.05 13.0054C208.329 13.6443 207.723 13.7917 207.281 13.7917C206.149 13.7917 205.477 13.0054 205.477 11.8744C205.477 10.7602 206.051 9.9082 207.166 9.9082C207.821 9.9082 208.51 10.203 209.05 10.7276V8.23636C208.149 7.81038 207.412 7.61365 206.543 7.61365C203.855 7.61365 202.511 9.64594 202.511 11.8581C202.511 14.5131 204.232 16.1188 206.543 16.1188C207.838 16.1188 208.919 15.578 209.05 15.5124V13.0054ZM216.31 8.87584C215.605 7.97457 214.819 7.61365 213.721 7.61365C211.099 7.61365 210.034 9.85889 210.034 11.8581C210.034 14.5293 211.705 16.1188 213.721 16.1188C214.884 16.1188 215.753 15.611 216.31 14.8897V15.824H219.063V7.90902H216.31V8.87584ZM214.704 13.7592C213.524 13.7592 213 12.8087 213 11.8581C213 10.9406 213.508 9.97375 214.704 9.97375C215.72 9.97375 216.425 10.7108 216.425 11.8581C216.425 13.0216 215.72 13.7592 214.704 13.7592ZM220.898 15.824H223.766V3.77892H220.898V15.824ZM53.4659 15.824H56.678V7.10584H59.2018V4.35285H50.9427V7.10584H53.4659V15.824ZM66.0031 16.1519C70.1982 16.1519 72.1644 13.1528 72.1644 10.0881C72.1644 7.02405 70.1982 4.02495 66.0031 4.02495C61.8074 4.02495 59.8413 7.02405 59.8413 10.0881C59.8413 13.1528 61.8074 16.1519 66.0031 16.1519ZM66.0031 13.3988C64.5117 13.3988 63.1515 12.3008 63.1515 10.0881C63.1515 7.87593 64.5117 6.77801 66.0031 6.77801C67.494 6.77801 68.8542 7.87593 68.8542 10.0881C68.8542 12.3008 67.494 13.3988 66.0031 13.3988ZM79.3754 16.1519C83.5705 16.1519 85.5367 13.1528 85.5367 10.0881C85.5367 7.02405 83.5705 4.02495 79.3754 4.02495C75.1797 4.02495 73.2136 7.02405 73.2136 10.0881C73.2136 13.1528 75.1797 16.1519 79.3754 16.1519ZM79.3754 13.3988C77.884 13.3988 76.5237 12.3008 76.5237 10.0881C76.5237 7.87593 77.884 6.77801 79.3754 6.77801C80.8663 6.77801 82.2265 7.87593 82.2265 10.0881C82.2265 12.3008 80.8663 13.3988 79.3754 13.3988ZM92.7639 4.35285H90.6991L91.2725 7.67922H92.1906L92.7639 4.35285ZM95.7467 4.35285H93.6814L94.2554 7.67922H95.1729L95.7467 4.35285ZM227.568 4.35285H225.504L226.077 7.67922H226.995L227.568 4.35285ZM230.551 4.35285H228.486L229.06 7.67922H229.977L230.551 4.35285Z" fill="white"/>
<path fill-rule="evenodd" clip-rule="evenodd" d="M51.8298 35.7374H55.0419V27.0193H58.7124V24.2663H51.8298V35.7374ZM58.8273 35.7374H62.2691L62.9081 33.7545H66.8084L67.4474 35.7374H70.8887L66.8084 24.2663H62.9081L58.8273 35.7374ZM64.858 27.0031L66.1689 31.2307H63.547L64.858 27.0031ZM71.8067 35.7374H75.0188V31.952H76.6413C79.8859 31.952 80.8202 29.6905 80.8202 28.101C80.8202 26.5278 79.9021 24.2663 76.6413 24.2663H71.8067V35.7374ZM75.0188 26.7901H75.9363C77.3128 26.7901 77.5095 27.5271 77.5095 28.101C77.5095 28.5926 77.3621 29.4282 75.9363 29.4282H75.0188V26.7901ZM81.1637 35.7374H84.6056L85.2446 33.7545H89.1449L89.7838 35.7374H93.2251L89.1449 24.2663H85.2446L81.1637 35.7374ZM87.1944 27.0031L88.5054 31.2307H85.8835L87.1944 27.0031ZM94.1432 35.7374H97.3552V31.1488H101.256V35.7374H104.468V24.2663H101.256V28.3959H97.3552V24.2663H94.1432V35.7374ZM108.138 35.7374H111.35V27.0193H113.874V24.2663H105.615V27.0193H108.138V35.7374ZM115.021 24.2663V35.7374H118.168L122.609 28.8548V35.7374H125.706V24.2663H122.56L118.118 31.1488V24.2663H115.021ZM126.968 35.7374H130.41L132.753 31.8371H133.048V35.7374H136.26V24.2663H131.556C130.983 24.2663 127.427 24.3151 127.427 28.0842C127.427 29.9691 128.558 31.1651 130.065 31.4274L126.968 35.7374ZM133.048 29.5431H132.163C131.491 29.5431 130.524 29.412 130.524 28.1666C130.524 26.8551 131.72 26.7901 132.163 26.7901H133.048V29.5431ZM142.143 35.7374H145.355V30.8047L148.681 35.7374H152.697L148.223 29.8217L152.582 24.2663H148.813L145.355 29.0841V24.2663H142.143V35.7374ZM152.467 35.7374H155.909L156.548 33.7545H160.448L161.087 35.7374H164.528L160.448 24.2663H156.548L152.467 35.7374ZM158.498 27.0031L159.808 31.2307H157.187L158.498 27.0031ZM171.296 35.7374H174.509V24.2663H171.296V28.74C170.674 28.8055 170.346 28.8548 170.084 28.8548C168.298 28.8548 168.314 28.0186 168.314 27.1342V24.2663H165.102V27.5927C165.102 29.4938 165.266 31.4274 169.15 31.4274C169.871 31.4274 170.117 31.4274 171.296 31.2638V35.7374ZM176.573 35.7374H183.456V32.9844H179.785V31.1488H183.112V28.625H179.785V27.0193H183.456V24.2663H176.573V35.7374ZM193.632 31.952C193.043 32.5584 192.108 33.1974 190.912 33.1974C189.077 33.1974 187.979 31.8372 187.979 30.1002C187.979 28.2154 189.142 26.8063 190.912 26.8063C192.142 26.8063 193.043 27.4946 193.632 28.1828V24.8559C192.666 24.2007 191.502 23.9384 190.486 23.9384C187.373 23.9384 184.669 26.1669 184.669 30.0016C184.669 33.6726 187.126 36.0653 190.535 36.0653C191.519 36.0653 192.6 35.9179 193.632 35.2128V31.952ZM196.844 35.7374H200.057V27.0193H202.58V24.2663H194.321V27.0193H196.844V35.7374ZM203.728 24.2663V35.7374H209.595C212.249 35.7374 213.347 34.1479 213.347 32.5416C213.347 30.4444 211.676 29.7886 210.922 29.6087V29.5756C211.856 29.2477 212.708 28.3959 212.708 27.183C212.708 26.298 212.396 24.2663 209.283 24.2663H203.728ZM206.94 28.7893V26.5603H208.283C209.382 26.5603 209.758 27.1011 209.758 27.7075C209.758 28.1335 209.545 28.7893 208.283 28.7893H206.94ZM206.94 33.4435V31.0833H208.414C208.939 31.0833 210.135 31.0833 210.135 32.2306C210.135 33.4266 208.906 33.4435 208.414 33.4435H206.94ZM213.691 35.7374H217.133L217.772 33.7545H221.672L222.311 35.7374H225.752L221.672 24.2663H217.772L213.691 35.7374ZM219.722 27.0031L221.033 31.2307H218.411L219.722 27.0031Z" fill="white"/>
</svg>
