<svg width="80" height="78" viewBox="0 0 80 78" fill="none" xmlns="http://www.w3.org/2000/svg">
<path d="M55 53.7L60.85 24C64.8 21.85 67.5 17.75 67.5 13C67.5 9.68479 66.183 6.50537 63.8388 4.16117C61.4946 1.81696 58.3152 0.5 55 0.5C51.6848 0.5 48.5054 1.81696 46.1612 4.16117C43.817 6.50537 42.5 9.68479 42.5 13C42.5 17.75 45.2 21.85 49.15 24L55 53.7ZM55 5.5C59.15 5.5 62.5 8.85 62.5 13C62.5 17.15 59.15 20.5 55 20.5C50.85 20.5 47.5 17.15 47.5 13C47.5 8.85 50.85 5.5 55 5.5ZM63.6 29.5L80 22.85V67.85L55.6 78L25 67.85L0 77.85V32.85L25 22.85L46.35 29.9L55 66.4L63.6 29.5Z" fill="#0F159D"/>
</svg>
