<svg width="37" height="39" viewBox="0 0 37 39" fill="none" xmlns="http://www.w3.org/2000/svg">
<path fill-rule="evenodd" clip-rule="evenodd" d="M13.6349 35.8007C16.049 35.8007 14.3662 35.7088 15.4415 34.4844C16.0613 33.7787 16.7469 33.8203 17.5195 33.8203C17.5195 36.1789 17.2113 35.8007 18.6622 35.8007C19.0645 35.8007 18.8907 34.9383 18.8907 33.8203C19.8906 33.8203 20.8445 33.8735 21.2997 35.0676C21.6104 35.8828 20.9145 35.8007 22.7754 35.8007C22.7754 35.2722 22.655 34.7304 22.4566 34.3677C22.3362 34.1472 22.2654 33.993 22.1093 33.8009C21.2232 32.7113 20.3726 32.4493 18.8907 32.4493V30.6212C19.8074 30.3762 21.4163 28.3912 24.9693 30.7125C25.7063 31.194 26.6851 31.5353 27.879 31.5353C28.7892 32.8947 28.5644 34.0322 28.5644 35.877C28.5644 36.1728 28.464 36.4443 28.3507 36.6535C27.9225 37.4425 27.1902 37.7052 26.2031 37.7052H10.2071C7.35151 37.7052 7.84583 35.4596 7.84583 33.5157C7.84583 31.5004 9.7757 30.3889 10.2832 29.6309C12.7935 29.8398 13.2023 32.3125 17.5195 31.3066V32.4493C16.2298 32.4493 15.6742 32.5906 14.7754 33.2853C14.5796 33.4368 14.4997 33.5615 14.3366 33.7603C14.1479 33.9899 14.1346 34.0469 13.9819 34.3198C13.7564 34.7231 13.6349 35.2244 13.6349 35.8007ZM16.3009 23.1563V14.3203H17.5195V29.7071C17.5195 29.9699 17.2719 29.9853 17.0208 30.0462C15.714 30.3638 14.403 30.1612 13.2993 29.4333C12.2612 28.7488 12.3095 28.9156 11.502 28.4884C11.727 28.1522 12.4073 27.545 12.7398 27.2125L15.2535 24.6988C15.6493 24.303 16.3009 23.8831 16.3009 23.1563ZM18.8907 29.0977V14.3203H20.1095V23.1563C20.1095 23.8648 20.8033 24.3453 21.4615 25.0035C22.107 25.649 26.0519 29.5197 26.2794 29.8593C25.4888 29.6751 23.4119 27.42 20.0221 28.5533C19.4816 28.734 19.3245 28.8683 18.8907 29.0977ZM20.414 11.045L24.4513 8.37894C24.3277 8.14567 24.2552 8.04065 24.0919 7.82423C23.9353 7.61705 23.8238 7.43687 23.6894 7.23638C22.1682 8.25513 20.6404 9.26464 19.1192 10.2833C19.1814 9.53507 20.0711 8.25283 20.7498 7.72439C22.5421 6.32892 23.7093 6.55082 25.8985 6.55082C25.8985 7.47829 25.2865 8.60892 24.6684 9.28185L24.5584 9.4003C23.3729 10.5789 22.194 11.045 20.414 11.045ZM10.5117 6.55082C12.6997 6.55082 13.8706 6.33081 15.6604 7.72439L16.6386 8.80291C16.8259 9.07467 17.2612 9.92468 17.291 10.2833C16.9294 10.0411 12.9452 7.31671 12.6445 7.23638C12.5667 7.52808 12.1291 8.0575 11.959 8.37894L15.9961 11.045C15.2242 11.045 14.4444 10.9407 13.8725 10.7312C13.0371 10.4249 12.4023 9.97028 11.8142 9.36157C11.7761 9.32211 11.7167 9.25309 11.6697 9.20158C11.1039 8.58017 10.5117 7.42198 10.5117 6.55082ZM15.2345 12.3399H17.5195V12.9494C14.5836 12.9494 14.9297 12.6463 14.9297 15.7676V21.4043C14.9297 23.6122 15.3485 22.6995 12.9303 25.1177C11.6548 26.3931 10.4352 27.6129 9.15969 28.8882C6.58907 31.4588 6.47469 31.744 6.47469 35.4199C6.47469 36.4975 6.74876 37.3191 7.29173 37.8782C7.80631 38.4078 8.52472 39 9.52157 39H26.8887C28.4877 39 29.9356 37.5302 29.9356 35.4199C29.9356 31.79 29.8215 31.4594 27.2887 28.9263C26.0131 27.6508 24.7936 26.4312 23.518 25.1559C22.898 24.5359 22.2283 23.926 21.6455 23.296C21.3626 22.9901 21.4805 22.3112 21.4805 21.5566L21.4847 13.9355C21.4805 12.6841 20.5837 12.9494 18.8908 12.9494V12.3399H21.1759C23.8988 12.3399 26.2744 10.2032 27.0513 7.70345C27.2184 7.16547 27.7403 5.17984 26.6603 5.17984C23.9141 5.17984 21.3155 4.95905 19.253 7.29409C18.9837 7.59905 18.3869 8.36488 18.2813 8.75997H18.129C17.9155 7.9605 16.6931 6.74613 15.9163 6.24992C13.9079 4.96652 12.1349 5.17984 9.75003 5.17984C8.67005 5.17984 9.19192 7.16547 9.35909 7.70345C9.63948 8.60563 10.0464 9.33554 10.576 9.99064C11.4592 11.0833 13.2863 12.3399 15.2345 12.3399H15.2345Z" fill="white"/>
<path fill-rule="evenodd" clip-rule="evenodd" d="M0 17.748C0 20.0478 0.193073 21.8392 0.943225 23.9651C1.19352 24.6739 2.34903 27.6519 2.97088 28.1075L4.03724 27.498C3.93107 27.043 2.24845 24.7538 1.61998 21.3841C1.41085 20.2631 1.23548 18.6326 1.36008 17.5085C1.5506 15.7877 1.33916 15.8485 1.91996 13.7266C2.35426 12.14 3.2413 10.1506 4.15746 8.80405C4.28619 8.61487 4.31745 8.59974 4.44856 8.40959C4.57851 8.22138 4.62795 8.14584 4.76538 7.96468C5.72466 6.70014 7.09434 5.35655 8.40954 4.44866C13.301 1.07206 19.2919 0.243341 24.9866 2.74014C27.6875 3.92441 30.1188 5.84182 31.8405 8.22594C33.6013 10.6643 35.039 14.2734 35.039 17.3672C35.039 19.8821 34.9715 21.7051 34.0274 24.049C33.654 24.9761 32.5638 27.4804 31.916 27.9551V26.6602H30.5449V30.0117C30.5449 30.2239 30.8659 30.5449 31.0781 30.5449H34.5058V29.25H32.754L34.1016 27.0938C36.3713 23.0348 37.0166 18.3319 35.8616 13.7264C35.7142 13.1383 35.5492 12.5698 35.3535 12.0255C34.4419 9.48963 32.9781 7.19653 31.0972 5.313L29.9892 4.28817C29.0181 3.47022 27.1035 2.20422 25.9305 1.71993C24.6314 1.18328 24.361 0.965709 22.7454 0.56339C21.483 0.248881 20.2412 0.0628019 19.0224 0.000106812H17.174C13.5449 0.188679 10.146 1.49486 7.06193 3.78661C2.9049 6.8757 0 12.4447 0 17.748Z" fill="white"/>
<path fill-rule="evenodd" clip-rule="evenodd" d="M3.88485 17.9005C3.88485 22.9382 5.95659 25.3093 6.09383 25.8984C5.84026 25.8394 4.91029 25.6076 4.72263 25.5176C4.56452 25.8472 4.50663 26.469 4.34184 26.8127C8.23009 27.7185 8.2023 28.4953 8.67729 26.1208C8.80511 25.4817 8.92065 24.8397 9.06446 24.2227C8.88118 24.1348 8.6169 24.1114 8.38479 24.0633C8.19391 24.0237 8.25484 24.0297 8.06031 23.991C7.8136 23.9417 7.82759 23.929 7.75498 23.9982C7.68213 24.0676 7.46954 25.2291 7.46498 25.4415L7.03894 24.8011C6.07735 23.2145 5.25587 20.7141 5.25587 18.8908C5.25587 16.6376 5.38582 15.1102 6.27207 13.1276C7.33886 10.741 7.40764 11.1619 8.45515 9.59771C8.05113 9.38403 7.79348 9.03095 7.38866 8.75998C7.27696 8.97117 6.20116 10.2982 5.50002 11.5937C4.62089 13.2183 3.88485 15.8002 3.88485 17.9005Z" fill="white"/>
<path fill-rule="evenodd" clip-rule="evenodd" d="M27.9551 9.59771C28.9009 11.0101 29.1524 10.8853 30.09 13.0233C30.3536 13.6246 30.6378 14.3299 30.7934 15.0623C31.2736 17.3224 31.3188 19.0002 30.8038 21.2824C30.6229 22.0835 30.3769 22.7325 30.09 23.387C29.2013 25.4137 28.9074 25.3903 27.9551 26.8127C28.4561 27.1481 28.7335 27.5736 29.0215 27.6504C29.0848 27.4138 29.1768 27.3794 29.3257 27.1929C30.3507 25.9082 30.7601 25.1887 31.457 23.6113C31.7932 22.8508 32.0019 22.0271 32.206 21.1612C32.8772 18.3154 32.4596 15.323 31.4374 12.7424C31.1446 12.0031 30.767 11.2604 30.3471 10.6335C30.1196 10.2942 29.9294 9.98044 29.7076 9.67322C29.4794 9.35719 29.2116 9.11931 29.0215 8.75998C28.5471 9.07753 28.4377 9.27457 27.9551 9.59771Z" fill="white"/>
<path fill-rule="evenodd" clip-rule="evenodd" d="M3.6562 29.174C3.76317 29.3335 3.98494 29.5788 4.13691 29.7597C4.2868 29.9381 4.49034 30.2118 4.64656 30.3165C4.99998 30.0798 5.32489 29.6874 5.63672 29.4785C5.37506 29.0879 4.99439 28.7417 4.72263 28.336C4.47118 28.5043 3.80282 28.9549 3.6562 29.174Z" fill="white"/>
</svg>
