<svg width="24" height="25" viewBox="0 0 24 25" fill="none" xmlns="http://www.w3.org/2000/svg">
<path d="M20 11.499H22C22 6.369 18.127 2.5 12.99 2.5V4.5C17.052 4.5 20 7.443 20 11.499Z" fill="white"/>
<path d="M13 8.50024C15.103 8.50024 16 9.39724 16 11.5002H18C18 8.27524 16.225 6.50024 13 6.50024V8.50024ZM16.422 13.9432C16.2298 13.7686 15.9773 13.6754 15.7178 13.6835C15.4583 13.6915 15.212 13.8001 15.031 13.9862L12.638 16.4472C12.062 16.3372 10.904 15.9762 9.712 14.7872C8.52 13.5942 8.159 12.4332 8.052 11.8612L10.511 9.46724C10.6974 9.28637 10.8061 9.04006 10.8142 8.78045C10.8222 8.52083 10.7289 8.26828 10.554 8.07624L6.859 4.01324C6.68404 3.8206 6.44088 3.70374 6.18115 3.6875C5.92143 3.67125 5.6656 3.7569 5.468 3.92624L3.298 5.78724C3.12511 5.96075 3.02192 6.19169 3.008 6.43624C2.993 6.68624 2.707 12.6082 7.299 17.2022C11.305 21.2072 16.323 21.5002 17.705 21.5002C17.907 21.5002 18.031 21.4942 18.064 21.4922C18.3085 21.4786 18.5393 21.3749 18.712 21.2012L20.572 19.0302C20.7415 18.8328 20.8273 18.577 20.8112 18.3173C20.7952 18.0576 20.6785 17.8143 20.486 17.6392L16.422 13.9432Z" fill="white"/>
</svg>
