<svg width="76" height="84" viewBox="0 0 76 84" fill="none" xmlns="http://www.w3.org/2000/svg">
<path d="M75.5 60.7499C75.5 62.3333 74.625 63.7083 73.2917 64.4166L40.375 82.9166C39.7083 83.4166 38.875 83.6666 38 83.6666C37.125 83.6666 36.2917 83.4166 35.625 82.9166L2.70835 64.4166C2.04035 64.0656 1.48132 63.5382 1.09199 62.8917C0.702658 62.2453 0.49792 61.5045 0.500016 60.7499V23.2499C0.500016 21.6666 1.37502 20.2916 2.70835 19.5833L35.625 1.08325C36.2917 0.583252 37.125 0.333252 38 0.333252C38.875 0.333252 39.7083 0.583252 40.375 1.08325L73.2917 19.5833C74.625 20.2916 75.5 21.6666 75.5 23.2499V60.7499ZM8.83335 29.4999V54.4999H14.0417V46.1666H17.1667C19.3768 46.1666 21.4964 45.2886 23.0592 43.7258C24.622 42.163 25.5 40.0434 25.5 37.8333C25.5 35.6231 24.622 33.5035 23.0592 31.9407C21.4964 30.3779 19.3768 29.4999 17.1667 29.4999H8.83335ZM14.0417 41.9999V33.6666H16.125C17.2301 33.6666 18.2899 34.1056 19.0713 34.887C19.8527 35.6684 20.2917 36.7282 20.2917 37.8333C20.2917 38.9383 19.8527 39.9981 19.0713 40.7795C18.2899 41.5609 17.2301 41.9999 16.125 41.9999H14.0417ZM28.625 29.4999V54.4999H33.8333V46.1666H36.9583L39.7083 54.4999H45.2083L41.9167 44.5416C43.9583 43.0416 45.2917 40.5833 45.2917 37.8333C45.2917 35.6231 44.4137 33.5035 42.8509 31.9407C41.2881 30.3779 39.1685 29.4999 36.9583 29.4999H28.625ZM33.8333 41.9999V33.6666H35.9167C37.0218 33.6666 38.0816 34.1056 38.863 34.887C39.6444 35.6684 40.0833 36.7282 40.0833 37.8333C40.0833 38.9383 39.6444 39.9981 38.863 40.7795C38.0816 41.5609 37.0218 41.9999 35.9167 41.9999H33.8333ZM58.8333 29.4999C53.0833 29.4999 48.4167 35.0833 48.4167 41.9999C48.4167 48.9166 53.0833 54.4999 58.8333 54.4999C64.5833 54.4999 69.25 48.9166 69.25 41.9999C69.25 35.0833 64.5833 29.4999 58.8333 29.4999ZM58.8333 34.7083C62 34.7083 64.5833 37.9583 64.5833 41.9999C64.5833 46.0416 62 49.2916 58.8333 49.2916C55.6667 49.2916 53.125 46.0416 53.125 41.9999C53.125 37.9583 55.6667 34.7083 58.8333 34.7083Z" fill="#0F159D"/>
</svg>
