<svg width="72" height="68" viewBox="0 0 72 68" fill="none" xmlns="http://www.w3.org/2000/svg">
<path d="M25.6667 0.666748H42.3333V17.3334H25.6667V0.666748ZM0.666672 50.6667H17.3333V67.3334H0.666672V50.6667ZM0.666672 25.6667H17.3333V42.3334H0.666672V25.6667ZM0.666672 0.666748H17.3333V17.3334H0.666672V0.666748ZM50.6667 0.666748H67.3333V17.3334H50.6667V0.666748ZM29.8333 58.4167V67.3334H38.5833L63.5 42.4584L54.6667 33.6251L29.8333 58.4167ZM42.3333 34.1251V25.6667H25.6667V42.3334H34.125L42.3333 34.1251ZM70.875 32.1667L65 26.2917C64.1667 25.4584 62.875 25.4584 62.0417 26.2917L57.625 30.7084L66.4583 39.5417L70.875 35.1251C71.7083 34.2917 71.7083 33.0001 70.875 32.1667Z" fill="#0F159D"/>
</svg>
