<svg width="84" height="72" viewBox="0 0 84 72" fill="none" xmlns="http://www.w3.org/2000/svg">
<path d="M46.1668 0.5H62.8335V8.83333H46.1668V0.5ZM4.50016 21.3333H21.1668V29.6667H4.50016V21.3333ZM4.50016 54.6667H21.1668V63H4.50016V54.6667ZM0.333496 38H16.9585V46.3333H0.333496V38ZM82.446 15.9458L76.5543 10.0542L69.4418 17.1667C64.934 14.4423 59.7673 13.0015 54.5002 13C38.421 13 25.3335 26.0875 25.3335 42.1667C25.3335 58.2458 38.421 71.3333 54.5002 71.3333C70.5793 71.3333 83.6668 58.2458 83.6668 42.1667C83.6627 34.8586 80.9027 27.8209 75.9377 22.4583L82.446 15.9458ZM58.6668 46.3333H50.3335V25.325H58.6668V46.3333Z" fill="#0F159D"/>
</svg>
